<mxfile host="app.diagrams.net" modified="2022-04-17T13:32:35.011Z" agent="5.0 (Windows NT 10.0; Win64; x64) AppleWebKit/537.36 (KHTML, like Gecko) Chrome/100.0.4896.127 Safari/537.36" etag="R54Wyq0TwQU38azkMAtn" version="17.4.5" type="github">
  <diagram id="C5RBs43oDa-KdzZeNtuy" name="Page-1">
    <mxGraphModel dx="1652" dy="2725" grid="1" gridSize="10" guides="1" tooltips="1" connect="1" arrows="1" fold="1" page="1" pageScale="1" pageWidth="827" pageHeight="1169" math="0" shadow="0">
      <root>
        <mxCell id="WIyWlLk6GJQsqaUBKTNV-0" />
        <mxCell id="WIyWlLk6GJQsqaUBKTNV-1" parent="WIyWlLk6GJQsqaUBKTNV-0" />
        <mxCell id="zkfFHV4jXpPFQw0GAbJ--0" value="tasklist" style="swimlane;fontStyle=2;align=center;verticalAlign=top;childLayout=stackLayout;horizontal=1;startSize=26;horizontalStack=0;resizeParent=1;resizeLast=0;collapsible=1;marginBottom=0;rounded=0;shadow=0;strokeWidth=1;" parent="WIyWlLk6GJQsqaUBKTNV-1" vertex="1">
          <mxGeometry x="103" y="-814" width="160" height="180" as="geometry">
            <mxRectangle x="230" y="140" width="160" height="26" as="alternateBounds" />
          </mxGeometry>
        </mxCell>
        <mxCell id="zkfFHV4jXpPFQw0GAbJ--1" value="-TL: ArrayList&lt;task&gt;" style="text;align=left;verticalAlign=top;spacingLeft=4;spacingRight=4;overflow=hidden;rotatable=0;points=[[0,0.5],[1,0.5]];portConstraint=eastwest;" parent="zkfFHV4jXpPFQw0GAbJ--0" vertex="1">
          <mxGeometry y="26" width="160" height="26" as="geometry" />
        </mxCell>
        <mxCell id="zkfFHV4jXpPFQw0GAbJ--4" value="" style="line;html=1;strokeWidth=1;align=left;verticalAlign=middle;spacingTop=-1;spacingLeft=3;spacingRight=3;rotatable=0;labelPosition=right;points=[];portConstraint=eastwest;" parent="zkfFHV4jXpPFQw0GAbJ--0" vertex="1">
          <mxGeometry y="52" width="160" height="8" as="geometry" />
        </mxCell>
        <mxCell id="zkfFHV4jXpPFQw0GAbJ--5" value="+tasklist()&#xa;+addTask(task:task)&#xa;+deleteTask(index: integer)&#xa;+getSize()&#xa;+isEmpty()&#xa;+getTask(index: integer)&#xa;+findTask(word:String)&#xa;" style="text;align=left;verticalAlign=top;spacingLeft=4;spacingRight=4;overflow=hidden;rotatable=0;points=[[0,0.5],[1,0.5]];portConstraint=eastwest;" parent="zkfFHV4jXpPFQw0GAbJ--0" vertex="1">
          <mxGeometry y="60" width="160" height="120" as="geometry" />
        </mxCell>
        <mxCell id="zkfFHV4jXpPFQw0GAbJ--26" value="" style="endArrow=open;shadow=0;strokeWidth=1;rounded=0;endFill=1;edgeStyle=elbowEdgeStyle;elbow=vertical;" parent="WIyWlLk6GJQsqaUBKTNV-1" source="zkfFHV4jXpPFQw0GAbJ--5" target="-9Vw-QxIyOdD_flSNo-W-17" edge="1">
          <mxGeometry x="0.5" y="41" relative="1" as="geometry">
            <mxPoint x="-190" y="-242" as="sourcePoint" />
            <mxPoint x="540" y="192" as="targetPoint" />
            <mxPoint x="-40" y="32" as="offset" />
          </mxGeometry>
        </mxCell>
        <mxCell id="zkfFHV4jXpPFQw0GAbJ--27" value="1" style="resizable=0;align=left;verticalAlign=bottom;labelBackgroundColor=none;fontSize=12;" parent="zkfFHV4jXpPFQw0GAbJ--26" connectable="0" vertex="1">
          <mxGeometry x="-1" relative="1" as="geometry">
            <mxPoint y="4" as="offset" />
          </mxGeometry>
        </mxCell>
        <mxCell id="zkfFHV4jXpPFQw0GAbJ--28" value="0..*" style="resizable=0;align=right;verticalAlign=bottom;labelBackgroundColor=none;fontSize=12;" parent="zkfFHV4jXpPFQw0GAbJ--26" connectable="0" vertex="1">
          <mxGeometry x="1" relative="1" as="geometry">
            <mxPoint x="-7" y="4" as="offset" />
          </mxGeometry>
        </mxCell>
        <mxCell id="zkfFHV4jXpPFQw0GAbJ--29" value="has" style="text;html=1;resizable=0;points=[];;align=center;verticalAlign=middle;labelBackgroundColor=none;rounded=0;shadow=0;strokeWidth=1;fontSize=12;" parent="zkfFHV4jXpPFQw0GAbJ--26" vertex="1" connectable="0">
          <mxGeometry x="0.5" y="49" relative="1" as="geometry">
            <mxPoint x="-38" y="40" as="offset" />
          </mxGeometry>
        </mxCell>
        <mxCell id="-9Vw-QxIyOdD_flSNo-W-1" value="deadline" style="swimlane;fontStyle=2;align=center;verticalAlign=top;childLayout=stackLayout;horizontal=1;startSize=26;horizontalStack=0;resizeParent=1;resizeLast=0;collapsible=1;marginBottom=0;rounded=0;shadow=0;strokeWidth=1;" vertex="1" parent="WIyWlLk6GJQsqaUBKTNV-1">
          <mxGeometry x="-277" y="-180" width="300" height="100" as="geometry">
            <mxRectangle x="-90" y="120" width="160" height="26" as="alternateBounds" />
          </mxGeometry>
        </mxCell>
        <mxCell id="-9Vw-QxIyOdD_flSNo-W-2" value="-by: LocalDate&#xa;&#xa;" style="text;align=left;verticalAlign=top;spacingLeft=4;spacingRight=4;overflow=hidden;rotatable=0;points=[[0,0.5],[1,0.5]];portConstraint=eastwest;" vertex="1" parent="-9Vw-QxIyOdD_flSNo-W-1">
          <mxGeometry y="26" width="300" height="26" as="geometry" />
        </mxCell>
        <mxCell id="-9Vw-QxIyOdD_flSNo-W-3" value="" style="line;html=1;strokeWidth=1;align=left;verticalAlign=middle;spacingTop=-1;spacingLeft=3;spacingRight=3;rotatable=0;labelPosition=right;points=[];portConstraint=eastwest;" vertex="1" parent="-9Vw-QxIyOdD_flSNo-W-1">
          <mxGeometry y="52" width="300" height="8" as="geometry" />
        </mxCell>
        <mxCell id="-9Vw-QxIyOdD_flSNo-W-4" value="+deadLine(description:String , by:String, time:String) &#xa;+getDate()&#xa;" style="text;align=left;verticalAlign=top;spacingLeft=4;spacingRight=4;overflow=hidden;rotatable=0;points=[[0,0.5],[1,0.5]];portConstraint=eastwest;" vertex="1" parent="-9Vw-QxIyOdD_flSNo-W-1">
          <mxGeometry y="60" width="300" height="40" as="geometry" />
        </mxCell>
        <mxCell id="-9Vw-QxIyOdD_flSNo-W-5" value="event" style="swimlane;fontStyle=2;align=center;verticalAlign=top;childLayout=stackLayout;horizontal=1;startSize=26;horizontalStack=0;resizeParent=1;resizeLast=0;collapsible=1;marginBottom=0;rounded=0;shadow=0;strokeWidth=1;" vertex="1" parent="WIyWlLk6GJQsqaUBKTNV-1">
          <mxGeometry x="33" y="-180" width="300" height="100" as="geometry">
            <mxRectangle x="-90" y="120" width="160" height="26" as="alternateBounds" />
          </mxGeometry>
        </mxCell>
        <mxCell id="-9Vw-QxIyOdD_flSNo-W-6" value="-by: LocalDate&#xa;&#xa;" style="text;align=left;verticalAlign=top;spacingLeft=4;spacingRight=4;overflow=hidden;rotatable=0;points=[[0,0.5],[1,0.5]];portConstraint=eastwest;" vertex="1" parent="-9Vw-QxIyOdD_flSNo-W-5">
          <mxGeometry y="26" width="300" height="26" as="geometry" />
        </mxCell>
        <mxCell id="-9Vw-QxIyOdD_flSNo-W-7" value="" style="line;html=1;strokeWidth=1;align=left;verticalAlign=middle;spacingTop=-1;spacingLeft=3;spacingRight=3;rotatable=0;labelPosition=right;points=[];portConstraint=eastwest;" vertex="1" parent="-9Vw-QxIyOdD_flSNo-W-5">
          <mxGeometry y="52" width="300" height="8" as="geometry" />
        </mxCell>
        <mxCell id="-9Vw-QxIyOdD_flSNo-W-8" value="+event(description:String , by:String, time:String) &#xa;+getDate()&#xa;" style="text;align=left;verticalAlign=top;spacingLeft=4;spacingRight=4;overflow=hidden;rotatable=0;points=[[0,0.5],[1,0.5]];portConstraint=eastwest;" vertex="1" parent="-9Vw-QxIyOdD_flSNo-W-5">
          <mxGeometry y="60" width="300" height="40" as="geometry" />
        </mxCell>
        <mxCell id="-9Vw-QxIyOdD_flSNo-W-9" value="todo" style="swimlane;fontStyle=2;align=center;verticalAlign=top;childLayout=stackLayout;horizontal=1;startSize=26;horizontalStack=0;resizeParent=1;resizeLast=0;collapsible=1;marginBottom=0;rounded=0;shadow=0;strokeWidth=1;" vertex="1" parent="WIyWlLk6GJQsqaUBKTNV-1">
          <mxGeometry x="343" y="-180" width="300" height="130" as="geometry">
            <mxRectangle x="-90" y="120" width="160" height="26" as="alternateBounds" />
          </mxGeometry>
        </mxCell>
        <mxCell id="-9Vw-QxIyOdD_flSNo-W-10" value="-isDone: Boolean&#xa;" style="text;align=left;verticalAlign=top;spacingLeft=4;spacingRight=4;overflow=hidden;rotatable=0;points=[[0,0.5],[1,0.5]];portConstraint=eastwest;" vertex="1" parent="-9Vw-QxIyOdD_flSNo-W-9">
          <mxGeometry y="26" width="300" height="26" as="geometry" />
        </mxCell>
        <mxCell id="-9Vw-QxIyOdD_flSNo-W-11" value="" style="line;html=1;strokeWidth=1;align=left;verticalAlign=middle;spacingTop=-1;spacingLeft=3;spacingRight=3;rotatable=0;labelPosition=right;points=[];portConstraint=eastwest;" vertex="1" parent="-9Vw-QxIyOdD_flSNo-W-9">
          <mxGeometry y="52" width="300" height="8" as="geometry" />
        </mxCell>
        <mxCell id="-9Vw-QxIyOdD_flSNo-W-12" value="+todo(description:String) &#xa;+toString()&#xa;+isDone()&#xa;+setDone(newValue:boolean)&#xa;" style="text;align=left;verticalAlign=top;spacingLeft=4;spacingRight=4;overflow=hidden;rotatable=0;points=[[0,0.5],[1,0.5]];portConstraint=eastwest;" vertex="1" parent="-9Vw-QxIyOdD_flSNo-W-9">
          <mxGeometry y="60" width="300" height="70" as="geometry" />
        </mxCell>
        <mxCell id="-9Vw-QxIyOdD_flSNo-W-13" value="ui" style="swimlane;fontStyle=2;align=center;verticalAlign=top;childLayout=stackLayout;horizontal=1;startSize=26;horizontalStack=0;resizeParent=1;resizeLast=0;collapsible=1;marginBottom=0;rounded=0;shadow=0;strokeWidth=1;" vertex="1" parent="WIyWlLk6GJQsqaUBKTNV-1">
          <mxGeometry x="-355" y="-817" width="320" height="181" as="geometry">
            <mxRectangle x="-90" y="120" width="160" height="26" as="alternateBounds" />
          </mxGeometry>
        </mxCell>
        <mxCell id="-9Vw-QxIyOdD_flSNo-W-14" value="-divider: String&#xa;" style="text;align=left;verticalAlign=top;spacingLeft=4;spacingRight=4;overflow=hidden;rotatable=0;points=[[0,0.5],[1,0.5]];portConstraint=eastwest;" vertex="1" parent="-9Vw-QxIyOdD_flSNo-W-13">
          <mxGeometry y="26" width="320" height="26" as="geometry" />
        </mxCell>
        <mxCell id="-9Vw-QxIyOdD_flSNo-W-15" value="" style="line;html=1;strokeWidth=1;align=left;verticalAlign=middle;spacingTop=-1;spacingLeft=3;spacingRight=3;rotatable=0;labelPosition=right;points=[];portConstraint=eastwest;" vertex="1" parent="-9Vw-QxIyOdD_flSNo-W-13">
          <mxGeometry y="52" width="320" height="8" as="geometry" />
        </mxCell>
        <mxCell id="-9Vw-QxIyOdD_flSNo-W-16" value="+printWelcomeMessage()&#xa;+printByeMsg(msg:String )&#xa;+printCmdMsg( TL:tasklist,  command:String)&#xa;+printDeleteMsg(TL:tasklist,  command:String,position:int)&#xa;+printUndoMsg(TL:tasklist,  command:String)&#xa;+printFindMsg(TL:tasklist,  word:String) &#xa;" style="text;align=left;verticalAlign=top;spacingLeft=4;spacingRight=4;overflow=hidden;rotatable=0;points=[[0,0.5],[1,0.5]];portConstraint=eastwest;" vertex="1" parent="-9Vw-QxIyOdD_flSNo-W-13">
          <mxGeometry y="60" width="320" height="120" as="geometry" />
        </mxCell>
        <mxCell id="-9Vw-QxIyOdD_flSNo-W-17" value="task" style="swimlane;fontStyle=2;align=center;verticalAlign=top;childLayout=stackLayout;horizontal=1;startSize=26;horizontalStack=0;resizeParent=1;resizeLast=0;collapsible=1;marginBottom=0;rounded=0;shadow=0;strokeWidth=1;" vertex="1" parent="WIyWlLk6GJQsqaUBKTNV-1">
          <mxGeometry x="33" y="-550" width="300" height="190" as="geometry">
            <mxRectangle x="-90" y="120" width="160" height="26" as="alternateBounds" />
          </mxGeometry>
        </mxCell>
        <mxCell id="-9Vw-QxIyOdD_flSNo-W-18" value="-description: String&#xa;-isDone: boolean&#xa;-type : char&#xa;" style="text;align=left;verticalAlign=top;spacingLeft=4;spacingRight=4;overflow=hidden;rotatable=0;points=[[0,0.5],[1,0.5]];portConstraint=eastwest;" vertex="1" parent="-9Vw-QxIyOdD_flSNo-W-17">
          <mxGeometry y="26" width="300" height="44" as="geometry" />
        </mxCell>
        <mxCell id="-9Vw-QxIyOdD_flSNo-W-19" value="" style="line;html=1;strokeWidth=1;align=left;verticalAlign=middle;spacingTop=-1;spacingLeft=3;spacingRight=3;rotatable=0;labelPosition=right;points=[];portConstraint=eastwest;" vertex="1" parent="-9Vw-QxIyOdD_flSNo-W-17">
          <mxGeometry y="70" width="300" height="30" as="geometry" />
        </mxCell>
        <mxCell id="-9Vw-QxIyOdD_flSNo-W-20" value="+task(String description)&#xa;+ getType()&#xa;+ getDescription()&#xa;+getStatusIcon()&#xa;+getStatusIconS()&#xa;+toString() " style="text;align=left;verticalAlign=top;spacingLeft=4;spacingRight=4;overflow=hidden;rotatable=0;points=[[0,0.5],[1,0.5]];portConstraint=eastwest;" vertex="1" parent="-9Vw-QxIyOdD_flSNo-W-17">
          <mxGeometry y="100" width="300" height="90" as="geometry" />
        </mxCell>
        <mxCell id="-9Vw-QxIyOdD_flSNo-W-21" value="Storage" style="swimlane;fontStyle=2;align=center;verticalAlign=top;childLayout=stackLayout;horizontal=1;startSize=26;horizontalStack=0;resizeParent=1;resizeLast=0;collapsible=1;marginBottom=0;rounded=0;shadow=0;strokeWidth=1;" vertex="1" parent="WIyWlLk6GJQsqaUBKTNV-1">
          <mxGeometry x="-760" y="-570" width="300" height="148" as="geometry">
            <mxRectangle x="-90" y="120" width="160" height="26" as="alternateBounds" />
          </mxGeometry>
        </mxCell>
        <mxCell id="-9Vw-QxIyOdD_flSNo-W-22" value="-DEFAULT_STORAGE_FILEPATH: String&#xa;-path: Path&#xa;" style="text;align=left;verticalAlign=top;spacingLeft=4;spacingRight=4;overflow=hidden;rotatable=0;points=[[0,0.5],[1,0.5]];portConstraint=eastwest;" vertex="1" parent="-9Vw-QxIyOdD_flSNo-W-21">
          <mxGeometry y="26" width="300" height="44" as="geometry" />
        </mxCell>
        <mxCell id="-9Vw-QxIyOdD_flSNo-W-23" value="" style="line;html=1;strokeWidth=1;align=left;verticalAlign=middle;spacingTop=-1;spacingLeft=3;spacingRight=3;rotatable=0;labelPosition=right;points=[];portConstraint=eastwest;" vertex="1" parent="-9Vw-QxIyOdD_flSNo-W-21">
          <mxGeometry y="70" width="300" height="8" as="geometry" />
        </mxCell>
        <mxCell id="-9Vw-QxIyOdD_flSNo-W-24" value="+storage()&#xa;+ storage(filePath:String)&#xa;+isValidPath(filePath:Path)&#xa;+save( fileName:String,  TL:tasklist) &#xa;" style="text;align=left;verticalAlign=top;spacingLeft=4;spacingRight=4;overflow=hidden;rotatable=0;points=[[0,0.5],[1,0.5]];portConstraint=eastwest;" vertex="1" parent="-9Vw-QxIyOdD_flSNo-W-21">
          <mxGeometry y="78" width="300" height="70" as="geometry" />
        </mxCell>
        <mxCell id="-9Vw-QxIyOdD_flSNo-W-25" value="dukeException" style="swimlane;fontStyle=2;align=center;verticalAlign=top;childLayout=stackLayout;horizontal=1;startSize=26;horizontalStack=0;resizeParent=1;resizeLast=0;collapsible=1;marginBottom=0;rounded=0;shadow=0;strokeWidth=1;" vertex="1" parent="WIyWlLk6GJQsqaUBKTNV-1">
          <mxGeometry x="-740" y="-940" width="300" height="120" as="geometry">
            <mxRectangle x="-90" y="120" width="160" height="26" as="alternateBounds" />
          </mxGeometry>
        </mxCell>
        <mxCell id="-9Vw-QxIyOdD_flSNo-W-26" value="+UnknownCommand :String&#xa;+invalidInputCommand :String&#xa;+invalidDateCommand :String" style="text;align=left;verticalAlign=top;spacingLeft=4;spacingRight=4;overflow=hidden;rotatable=0;points=[[0,0.5],[1,0.5]];portConstraint=eastwest;" vertex="1" parent="-9Vw-QxIyOdD_flSNo-W-25">
          <mxGeometry y="26" width="300" height="54" as="geometry" />
        </mxCell>
        <mxCell id="-9Vw-QxIyOdD_flSNo-W-27" value="" style="line;html=1;strokeWidth=1;align=left;verticalAlign=middle;spacingTop=-1;spacingLeft=3;spacingRight=3;rotatable=0;labelPosition=right;points=[];portConstraint=eastwest;" vertex="1" parent="-9Vw-QxIyOdD_flSNo-W-25">
          <mxGeometry y="80" width="300" height="8" as="geometry" />
        </mxCell>
        <mxCell id="-9Vw-QxIyOdD_flSNo-W-28" value=" +dukeException(message:String )" style="text;align=left;verticalAlign=top;spacingLeft=4;spacingRight=4;overflow=hidden;rotatable=0;points=[[0,0.5],[1,0.5]];portConstraint=eastwest;" vertex="1" parent="-9Vw-QxIyOdD_flSNo-W-25">
          <mxGeometry y="88" width="300" height="32" as="geometry" />
        </mxCell>
        <mxCell id="-9Vw-QxIyOdD_flSNo-W-29" value="Duke" style="swimlane;fontStyle=2;align=center;verticalAlign=top;childLayout=stackLayout;horizontal=1;startSize=26;horizontalStack=0;resizeParent=1;resizeLast=0;collapsible=1;marginBottom=0;rounded=0;shadow=0;strokeWidth=1;" vertex="1" parent="WIyWlLk6GJQsqaUBKTNV-1">
          <mxGeometry x="-760" y="-750" width="300" height="120" as="geometry">
            <mxRectangle x="-90" y="120" width="160" height="26" as="alternateBounds" />
          </mxGeometry>
        </mxCell>
        <mxCell id="-9Vw-QxIyOdD_flSNo-W-30" value="- storage: storage&#xa;- TL:tasklist&#xa;- ui: ui&#xa;" style="text;align=left;verticalAlign=top;spacingLeft=4;spacingRight=4;overflow=hidden;rotatable=0;points=[[0,0.5],[1,0.5]];portConstraint=eastwest;" vertex="1" parent="-9Vw-QxIyOdD_flSNo-W-29">
          <mxGeometry y="26" width="300" height="54" as="geometry" />
        </mxCell>
        <mxCell id="-9Vw-QxIyOdD_flSNo-W-31" value="" style="line;html=1;strokeWidth=1;align=left;verticalAlign=middle;spacingTop=-1;spacingLeft=3;spacingRight=3;rotatable=0;labelPosition=right;points=[];portConstraint=eastwest;" vertex="1" parent="-9Vw-QxIyOdD_flSNo-W-29">
          <mxGeometry y="80" width="300" height="8" as="geometry" />
        </mxCell>
        <mxCell id="-9Vw-QxIyOdD_flSNo-W-32" value="+main(String[] args)" style="text;align=left;verticalAlign=top;spacingLeft=4;spacingRight=4;overflow=hidden;rotatable=0;points=[[0,0.5],[1,0.5]];portConstraint=eastwest;" vertex="1" parent="-9Vw-QxIyOdD_flSNo-W-29">
          <mxGeometry y="88" width="300" height="32" as="geometry" />
        </mxCell>
        <mxCell id="-9Vw-QxIyOdD_flSNo-W-38" value="Use" style="endArrow=open;endSize=12;dashed=1;html=1;rounded=0;exitX=0.5;exitY=0;exitDx=0;exitDy=0;edgeStyle=orthogonalEdgeStyle;" edge="1" parent="WIyWlLk6GJQsqaUBKTNV-1">
          <mxGeometry width="160" relative="1" as="geometry">
            <mxPoint x="-130.0000000000001" y="-180" as="sourcePoint" />
            <mxPoint x="180" y="-360" as="targetPoint" />
            <Array as="points">
              <mxPoint x="-130" y="-250" />
              <mxPoint x="180" y="-250" />
            </Array>
          </mxGeometry>
        </mxCell>
        <mxCell id="-9Vw-QxIyOdD_flSNo-W-40" value="c" style="endArrow=classic;html=1;rounded=0;exitX=1;exitY=0.5;exitDx=0;exitDy=0;entryX=0;entryY=0.5;entryDx=0;entryDy=0;" edge="1" parent="WIyWlLk6GJQsqaUBKTNV-1" source="-9Vw-QxIyOdD_flSNo-W-30" target="-9Vw-QxIyOdD_flSNo-W-16">
          <mxGeometry relative="1" as="geometry">
            <mxPoint x="-250" y="-530" as="sourcePoint" />
            <mxPoint x="-90" y="-530" as="targetPoint" />
          </mxGeometry>
        </mxCell>
        <mxCell id="-9Vw-QxIyOdD_flSNo-W-41" value="Call" style="edgeLabel;resizable=0;html=1;align=center;verticalAlign=middle;" connectable="0" vertex="1" parent="-9Vw-QxIyOdD_flSNo-W-40">
          <mxGeometry relative="1" as="geometry" />
        </mxCell>
        <mxCell id="-9Vw-QxIyOdD_flSNo-W-42" value="1" style="edgeLabel;resizable=0;html=1;align=left;verticalAlign=bottom;" connectable="0" vertex="1" parent="-9Vw-QxIyOdD_flSNo-W-40">
          <mxGeometry x="-1" relative="1" as="geometry" />
        </mxCell>
        <mxCell id="-9Vw-QxIyOdD_flSNo-W-43" value="1" style="edgeLabel;resizable=0;html=1;align=right;verticalAlign=bottom;" connectable="0" vertex="1" parent="-9Vw-QxIyOdD_flSNo-W-40">
          <mxGeometry x="1" relative="1" as="geometry" />
        </mxCell>
        <mxCell id="-9Vw-QxIyOdD_flSNo-W-44" value="c" style="endArrow=classic;html=1;rounded=0;entryX=0.5;entryY=0;entryDx=0;entryDy=0;" edge="1" parent="WIyWlLk6GJQsqaUBKTNV-1" source="-9Vw-QxIyOdD_flSNo-W-32" target="-9Vw-QxIyOdD_flSNo-W-21">
          <mxGeometry relative="1" as="geometry">
            <mxPoint x="-450" y="-687" as="sourcePoint" />
            <mxPoint x="-220" y="-687" as="targetPoint" />
          </mxGeometry>
        </mxCell>
        <mxCell id="-9Vw-QxIyOdD_flSNo-W-45" value="Call" style="edgeLabel;resizable=0;html=1;align=center;verticalAlign=middle;" connectable="0" vertex="1" parent="-9Vw-QxIyOdD_flSNo-W-44">
          <mxGeometry relative="1" as="geometry" />
        </mxCell>
        <mxCell id="-9Vw-QxIyOdD_flSNo-W-46" value="1" style="edgeLabel;resizable=0;html=1;align=left;verticalAlign=bottom;" connectable="0" vertex="1" parent="-9Vw-QxIyOdD_flSNo-W-44">
          <mxGeometry x="-1" relative="1" as="geometry" />
        </mxCell>
        <mxCell id="-9Vw-QxIyOdD_flSNo-W-47" value="1" style="edgeLabel;resizable=0;html=1;align=right;verticalAlign=bottom;" connectable="0" vertex="1" parent="-9Vw-QxIyOdD_flSNo-W-44">
          <mxGeometry x="1" relative="1" as="geometry" />
        </mxCell>
        <mxCell id="-9Vw-QxIyOdD_flSNo-W-55" value="" style="endArrow=classic;html=1;rounded=0;entryX=0.433;entryY=1.09;entryDx=0;entryDy=0;entryPerimeter=0;exitX=0.5;exitY=0;exitDx=0;exitDy=0;" edge="1" parent="WIyWlLk6GJQsqaUBKTNV-1" source="-9Vw-QxIyOdD_flSNo-W-29" target="-9Vw-QxIyOdD_flSNo-W-28">
          <mxGeometry relative="1" as="geometry">
            <mxPoint x="-230" y="-750" as="sourcePoint" />
            <mxPoint x="-70" y="-750" as="targetPoint" />
          </mxGeometry>
        </mxCell>
        <mxCell id="-9Vw-QxIyOdD_flSNo-W-56" value="Display" style="edgeLabel;resizable=0;html=1;align=center;verticalAlign=middle;" connectable="0" vertex="1" parent="-9Vw-QxIyOdD_flSNo-W-55">
          <mxGeometry relative="1" as="geometry" />
        </mxCell>
        <mxCell id="-9Vw-QxIyOdD_flSNo-W-57" value="1" style="edgeLabel;resizable=0;html=1;align=left;verticalAlign=bottom;" connectable="0" vertex="1" parent="-9Vw-QxIyOdD_flSNo-W-55">
          <mxGeometry x="-1" relative="1" as="geometry" />
        </mxCell>
        <mxCell id="-9Vw-QxIyOdD_flSNo-W-58" value="1" style="edgeLabel;resizable=0;html=1;align=right;verticalAlign=bottom;" connectable="0" vertex="1" parent="-9Vw-QxIyOdD_flSNo-W-55">
          <mxGeometry x="1" relative="1" as="geometry" />
        </mxCell>
        <mxCell id="-9Vw-QxIyOdD_flSNo-W-59" value="" style="endArrow=classic;html=1;rounded=0;exitX=1;exitY=0.5;exitDx=0;exitDy=0;entryX=0;entryY=0.5;entryDx=0;entryDy=0;" edge="1" parent="WIyWlLk6GJQsqaUBKTNV-1" source="-9Vw-QxIyOdD_flSNo-W-16" target="zkfFHV4jXpPFQw0GAbJ--5">
          <mxGeometry relative="1" as="geometry">
            <mxPoint x="-50" y="-770" as="sourcePoint" />
            <mxPoint x="110" y="-770" as="targetPoint" />
          </mxGeometry>
        </mxCell>
        <mxCell id="-9Vw-QxIyOdD_flSNo-W-60" value="calls" style="edgeLabel;resizable=0;html=1;align=center;verticalAlign=middle;" connectable="0" vertex="1" parent="-9Vw-QxIyOdD_flSNo-W-59">
          <mxGeometry relative="1" as="geometry" />
        </mxCell>
        <mxCell id="-9Vw-QxIyOdD_flSNo-W-61" value="1" style="edgeLabel;resizable=0;html=1;align=left;verticalAlign=bottom;" connectable="0" vertex="1" parent="-9Vw-QxIyOdD_flSNo-W-59">
          <mxGeometry x="-1" relative="1" as="geometry" />
        </mxCell>
        <mxCell id="-9Vw-QxIyOdD_flSNo-W-62" value="1" style="edgeLabel;resizable=0;html=1;align=right;verticalAlign=bottom;" connectable="0" vertex="1" parent="-9Vw-QxIyOdD_flSNo-W-59">
          <mxGeometry x="1" relative="1" as="geometry" />
        </mxCell>
        <mxCell id="-9Vw-QxIyOdD_flSNo-W-64" value="Use" style="endArrow=open;endSize=12;dashed=1;html=1;rounded=0;exitX=0.5;exitY=0;exitDx=0;exitDy=0;edgeStyle=orthogonalEdgeStyle;" edge="1" parent="WIyWlLk6GJQsqaUBKTNV-1" source="-9Vw-QxIyOdD_flSNo-W-9">
          <mxGeometry width="160" relative="1" as="geometry">
            <mxPoint x="-117" y="-170" as="sourcePoint" />
            <mxPoint x="180" y="-360" as="targetPoint" />
            <Array as="points">
              <mxPoint x="493" y="-250" />
              <mxPoint x="180" y="-250" />
            </Array>
          </mxGeometry>
        </mxCell>
        <mxCell id="-9Vw-QxIyOdD_flSNo-W-65" value="Use" style="endArrow=open;endSize=12;dashed=1;html=1;rounded=0;exitX=0.5;exitY=0;exitDx=0;exitDy=0;edgeStyle=orthogonalEdgeStyle;" edge="1" parent="WIyWlLk6GJQsqaUBKTNV-1" source="-9Vw-QxIyOdD_flSNo-W-5">
          <mxGeometry width="160" relative="1" as="geometry">
            <mxPoint x="493" y="-180" as="sourcePoint" />
            <mxPoint x="180" y="-360" as="targetPoint" />
            <Array as="points">
              <mxPoint x="180" y="-180" />
            </Array>
          </mxGeometry>
        </mxCell>
        <mxCell id="-9Vw-QxIyOdD_flSNo-W-66" value="TL:tasklist" style="html=1;" vertex="1" parent="WIyWlLk6GJQsqaUBKTNV-1">
          <mxGeometry x="23" y="-1110" width="110" height="50" as="geometry" />
        </mxCell>
        <mxCell id="-9Vw-QxIyOdD_flSNo-W-67" value="deadline:task" style="html=1;" vertex="1" parent="WIyWlLk6GJQsqaUBKTNV-1">
          <mxGeometry x="240" y="-1110" width="110" height="50" as="geometry" />
        </mxCell>
        <mxCell id="-9Vw-QxIyOdD_flSNo-W-68" value="event:task" style="html=1;" vertex="1" parent="WIyWlLk6GJQsqaUBKTNV-1">
          <mxGeometry x="240" y="-1040" width="110" height="50" as="geometry" />
        </mxCell>
        <mxCell id="-9Vw-QxIyOdD_flSNo-W-69" value="todo:task" style="html=1;" vertex="1" parent="WIyWlLk6GJQsqaUBKTNV-1">
          <mxGeometry x="240" y="-970" width="110" height="50" as="geometry" />
        </mxCell>
        <mxCell id="-9Vw-QxIyOdD_flSNo-W-70" value="" style="endArrow=none;html=1;edgeStyle=orthogonalEdgeStyle;rounded=0;exitX=1;exitY=0.5;exitDx=0;exitDy=0;entryX=0;entryY=0.5;entryDx=0;entryDy=0;" edge="1" parent="WIyWlLk6GJQsqaUBKTNV-1" source="-9Vw-QxIyOdD_flSNo-W-66" target="-9Vw-QxIyOdD_flSNo-W-67">
          <mxGeometry relative="1" as="geometry">
            <mxPoint x="30" y="-810" as="sourcePoint" />
            <mxPoint x="190" y="-810" as="targetPoint" />
          </mxGeometry>
        </mxCell>
        <mxCell id="-9Vw-QxIyOdD_flSNo-W-73" value="" style="endArrow=none;html=1;edgeStyle=orthogonalEdgeStyle;rounded=0;exitX=1;exitY=0.5;exitDx=0;exitDy=0;entryX=0;entryY=0.5;entryDx=0;entryDy=0;" edge="1" parent="WIyWlLk6GJQsqaUBKTNV-1" source="-9Vw-QxIyOdD_flSNo-W-66" target="-9Vw-QxIyOdD_flSNo-W-68">
          <mxGeometry relative="1" as="geometry">
            <mxPoint x="143" y="-1075" as="sourcePoint" />
            <mxPoint x="250" y="-1075" as="targetPoint" />
          </mxGeometry>
        </mxCell>
        <mxCell id="-9Vw-QxIyOdD_flSNo-W-76" value="" style="endArrow=none;html=1;edgeStyle=orthogonalEdgeStyle;rounded=0;entryX=0;entryY=0.5;entryDx=0;entryDy=0;exitX=1;exitY=0.5;exitDx=0;exitDy=0;" edge="1" parent="WIyWlLk6GJQsqaUBKTNV-1" source="-9Vw-QxIyOdD_flSNo-W-66" target="-9Vw-QxIyOdD_flSNo-W-69">
          <mxGeometry relative="1" as="geometry">
            <mxPoint x="130" y="-1000" as="sourcePoint" />
            <mxPoint x="260" y="-1065" as="targetPoint" />
          </mxGeometry>
        </mxCell>
        <mxCell id="-9Vw-QxIyOdD_flSNo-W-79" value=":Duke" style="shape=umlLifeline;perimeter=lifelinePerimeter;whiteSpace=wrap;html=1;container=1;collapsible=0;recursiveResize=0;outlineConnect=0;" vertex="1" parent="WIyWlLk6GJQsqaUBKTNV-1">
          <mxGeometry x="390" y="-1240" width="100" height="300" as="geometry" />
        </mxCell>
        <mxCell id="-9Vw-QxIyOdD_flSNo-W-81" value="" style="html=1;points=[];perimeter=orthogonalPerimeter;" vertex="1" parent="-9Vw-QxIyOdD_flSNo-W-79">
          <mxGeometry x="45" y="71" width="10" height="209" as="geometry" />
        </mxCell>
        <mxCell id="-9Vw-QxIyOdD_flSNo-W-80" value=":storage" style="shape=umlLifeline;perimeter=lifelinePerimeter;whiteSpace=wrap;html=1;container=1;collapsible=0;recursiveResize=0;outlineConnect=0;" vertex="1" parent="WIyWlLk6GJQsqaUBKTNV-1">
          <mxGeometry x="740" y="-1240" width="100" height="300" as="geometry" />
        </mxCell>
        <mxCell id="-9Vw-QxIyOdD_flSNo-W-84" value="" style="html=1;points=[];perimeter=orthogonalPerimeter;" vertex="1" parent="-9Vw-QxIyOdD_flSNo-W-80">
          <mxGeometry x="45" y="71" width="10" height="209" as="geometry" />
        </mxCell>
        <mxCell id="-9Vw-QxIyOdD_flSNo-W-82" value=":ui" style="shape=umlLifeline;perimeter=lifelinePerimeter;whiteSpace=wrap;html=1;container=1;collapsible=0;recursiveResize=0;outlineConnect=0;" vertex="1" parent="WIyWlLk6GJQsqaUBKTNV-1">
          <mxGeometry x="610" y="-1240" width="100" height="300" as="geometry" />
        </mxCell>
        <mxCell id="-9Vw-QxIyOdD_flSNo-W-83" value="" style="html=1;points=[];perimeter=orthogonalPerimeter;" vertex="1" parent="-9Vw-QxIyOdD_flSNo-W-82">
          <mxGeometry x="45" y="71" width="10" height="209" as="geometry" />
        </mxCell>
        <mxCell id="-9Vw-QxIyOdD_flSNo-W-85" value="save()" style="endArrow=block;endFill=1;html=1;edgeStyle=orthogonalEdgeStyle;align=left;verticalAlign=top;rounded=0;exitX=0.975;exitY=0.378;exitDx=0;exitDy=0;exitPerimeter=0;" edge="1" parent="WIyWlLk6GJQsqaUBKTNV-1" source="-9Vw-QxIyOdD_flSNo-W-81" target="-9Vw-QxIyOdD_flSNo-W-80">
          <mxGeometry x="0.3648" y="20" relative="1" as="geometry">
            <mxPoint x="480" y="-1090" as="sourcePoint" />
            <mxPoint x="635" y="-1140" as="targetPoint" />
            <Array as="points" />
            <mxPoint as="offset" />
          </mxGeometry>
        </mxCell>
        <mxCell id="-9Vw-QxIyOdD_flSNo-W-88" value=":tasklist" style="shape=umlLifeline;perimeter=lifelinePerimeter;whiteSpace=wrap;html=1;container=1;collapsible=0;recursiveResize=0;outlineConnect=0;" vertex="1" parent="WIyWlLk6GJQsqaUBKTNV-1">
          <mxGeometry x="500" y="-1240" width="100" height="300" as="geometry" />
        </mxCell>
        <mxCell id="-9Vw-QxIyOdD_flSNo-W-89" value="" style="html=1;points=[];perimeter=orthogonalPerimeter;" vertex="1" parent="-9Vw-QxIyOdD_flSNo-W-88">
          <mxGeometry x="45" y="71" width="10" height="209" as="geometry" />
        </mxCell>
        <mxCell id="-9Vw-QxIyOdD_flSNo-W-93" value="" style="html=1;verticalAlign=bottom;endArrow=open;dashed=1;endSize=8;rounded=0;entryX=1.025;entryY=0.572;entryDx=0;entryDy=0;entryPerimeter=0;" edge="1" parent="-9Vw-QxIyOdD_flSNo-W-88" target="-9Vw-QxIyOdD_flSNo-W-81">
          <mxGeometry relative="1" as="geometry">
            <mxPoint x="45" y="190" as="sourcePoint" />
            <mxPoint x="-50" y="190" as="targetPoint" />
          </mxGeometry>
        </mxCell>
        <mxCell id="-9Vw-QxIyOdD_flSNo-W-87" value="addTask()&lt;br&gt;" style="endArrow=block;endFill=1;html=1;edgeStyle=orthogonalEdgeStyle;align=left;verticalAlign=top;rounded=0;exitX=1.187;exitY=0.139;exitDx=0;exitDy=0;exitPerimeter=0;entryX=0.089;entryY=0.139;entryDx=0;entryDy=0;entryPerimeter=0;" edge="1" parent="WIyWlLk6GJQsqaUBKTNV-1" source="-9Vw-QxIyOdD_flSNo-W-81" target="-9Vw-QxIyOdD_flSNo-W-89">
          <mxGeometry x="-0.5328" y="30" relative="1" as="geometry">
            <mxPoint x="515" y="-1139.9979999999998" as="sourcePoint" />
            <mxPoint x="540" y="-1140" as="targetPoint" />
            <Array as="points" />
            <mxPoint as="offset" />
          </mxGeometry>
        </mxCell>
        <mxCell id="-9Vw-QxIyOdD_flSNo-W-91" value="printCmdMsg()" style="endArrow=block;endFill=1;html=1;edgeStyle=orthogonalEdgeStyle;align=left;verticalAlign=top;rounded=0;exitX=0.936;exitY=0.181;exitDx=0;exitDy=0;exitPerimeter=0;entryX=-0.053;entryY=0.236;entryDx=0;entryDy=0;entryPerimeter=0;" edge="1" parent="WIyWlLk6GJQsqaUBKTNV-1" target="-9Vw-QxIyOdD_flSNo-W-83">
          <mxGeometry x="0.1978" y="30" relative="1" as="geometry">
            <mxPoint x="444.3600000000001" y="-1119.171" as="sourcePoint" />
            <mxPoint x="640" y="-1120" as="targetPoint" />
            <Array as="points" />
            <mxPoint as="offset" />
          </mxGeometry>
        </mxCell>
        <mxCell id="-9Vw-QxIyOdD_flSNo-W-95" value="" style="html=1;verticalAlign=bottom;endArrow=open;dashed=1;endSize=8;rounded=0;exitX=-0.19;exitY=0.858;exitDx=0;exitDy=0;exitPerimeter=0;entryX=0.9;entryY=0.851;entryDx=0;entryDy=0;entryPerimeter=0;" edge="1" parent="WIyWlLk6GJQsqaUBKTNV-1" source="-9Vw-QxIyOdD_flSNo-W-84" target="-9Vw-QxIyOdD_flSNo-W-81">
          <mxGeometry relative="1" as="geometry">
            <mxPoint x="658.0699999999997" y="-989.565" as="sourcePoint" />
            <mxPoint x="450" y="-990" as="targetPoint" />
          </mxGeometry>
        </mxCell>
        <mxCell id="-9Vw-QxIyOdD_flSNo-W-94" value="" style="html=1;verticalAlign=bottom;endArrow=open;dashed=1;endSize=8;rounded=0;exitX=0.113;exitY=0.715;exitDx=0;exitDy=0;exitPerimeter=0;entryX=0.975;entryY=0.712;entryDx=0;entryDy=0;entryPerimeter=0;" edge="1" parent="WIyWlLk6GJQsqaUBKTNV-1" source="-9Vw-QxIyOdD_flSNo-W-83" target="-9Vw-QxIyOdD_flSNo-W-81">
          <mxGeometry relative="1" as="geometry">
            <mxPoint x="650" y="-1020" as="sourcePoint" />
            <mxPoint x="450" y="-1020" as="targetPoint" />
          </mxGeometry>
        </mxCell>
      </root>
    </mxGraphModel>
  </diagram>
</mxfile>
